
<svg width="1440" height="800" viewBox="0 0 1440 800" fill="none" xmlns="http://www.w3.org/2000/svg">
  <g opacity="0.2">
    <rect width="1440" height="800" fill="white"/>
    <path d="M1163.1 694.2C1196.5 694.2 1223.7 667 1223.7 633.6C1223.7 600.2 1196.5 573 1163.1 573C1129.7 573 1102.5 600.2 1102.5 633.6C1102.5 667 1129.7 694.2 1163.1 694.2Z" stroke="#0FA0CE" stroke-width="1.5"/>
    <path d="M327.114 254.153C360.535 254.153 387.729 226.96 387.729 193.538C387.729 160.117 360.535 132.923 327.114 132.923C293.692 132.923 266.499 160.117 266.499 193.538C266.499 226.96 293.692 254.153 327.114 254.153Z" stroke="#0FA0CE" stroke-width="1.5"/>
    <path d="M1287.11 175.153C1320.54 175.153 1347.73 147.96 1347.73 114.538C1347.73 81.1171 1320.54 53.9235 1287.11 53.9235C1253.69 53.9235 1226.5 81.1171 1226.5 114.538C1226.5 147.96 1253.69 175.153 1287.11 175.153Z" stroke="#F97316" stroke-width="1.5"/>
    <path d="M180 694.2C213.421 694.2 240.615 667.006 240.615 633.585C240.615 600.164 213.421 572.97 180 572.97C146.578 572.97 119.385 600.164 119.385 633.585C119.385 667.006 146.578 694.2 180 694.2Z" stroke="#F97316" stroke-width="1.5"/>
    <path d="M704.615 144.2C738.036 144.2 765.23 117.006 765.23 83.5847C765.23 50.1636 738.036 22.9699 704.615 22.9699C671.194 22.9699 644 50.1636 644 83.5847C644 117.006 671.194 144.2 704.615 144.2Z" stroke="#0FA0CE" stroke-width="1.5"/>
    <path d="M0 0H1440" stroke="#E5E7EB" stroke-width="0.5"/>
    <path d="M0 100H1440" stroke="#E5E7EB" stroke-width="0.5"/>
    <path d="M0 200H1440" stroke="#E5E7EB" stroke-width="0.5"/>
    <path d="M0 300H1440" stroke="#E5E7EB" stroke-width="0.5"/>
    <path d="M0 400H1440" stroke="#E5E7EB" stroke-width="0.5"/>
    <path d="M0 500H1440" stroke="#E5E7EB" stroke-width="0.5"/>
    <path d="M0 600H1440" stroke="#E5E7EB" stroke-width="0.5"/>
    <path d="M0 700H1440" stroke="#E5E7EB" stroke-width="0.5"/>
    <path d="M0 800H1440" stroke="#E5E7EB" stroke-width="0.5"/>
    <path d="M100 0V800" stroke="#E5E7EB" stroke-width="0.5"/>
    <path d="M200 0V800" stroke="#E5E7EB" stroke-width="0.5"/>
    <path d="M300 0V800" stroke="#E5E7EB" stroke-width="0.5"/>
    <path d="M400 0V800" stroke="#E5E7EB" stroke-width="0.5"/>
    <path d="M500 0V800" stroke="#E5E7EB" stroke-width="0.5"/>
    <path d="M600 0V800" stroke="#E5E7EB" stroke-width="0.5"/>
    <path d="M700 0V800" stroke="#E5E7EB" stroke-width="0.5"/>
    <path d="M800 0V800" stroke="#E5E7EB" stroke-width="0.5"/>
    <path d="M900 0V800" stroke="#E5E7EB" stroke-width="0.5"/>
    <path d="M1000 0V800" stroke="#E5E7EB" stroke-width="0.5"/>
    <path d="M1100 0V800" stroke="#E5E7EB" stroke-width="0.5"/>
    <path d="M1200 0V800" stroke="#E5E7EB" stroke-width="0.5"/>
    <path d="M1300 0V800" stroke="#E5E7EB" stroke-width="0.5"/>
    <path d="M1400 0V800" stroke="#E5E7EB" stroke-width="0.5"/>
  </g>
</svg>
